<svg width="36" height="36" viewBox="0 0 36 36" fill="none" xmlns="http://www.w3.org/2000/svg">
<path fill-rule="evenodd" clip-rule="evenodd" d="M20.2314 7C20.7837 7 21.2314 7.44772 21.2314 8V12.7363H21.5264C22.6308 12.7364 23.5262 13.632 23.5264 14.7363V26.7998C23.5262 27.9042 22.6308 28.7998 21.5264 28.7998H14.0527C12.9482 28.7998 12.0529 27.9043 12.0527 26.7998V14.7363C12.0529 13.6319 12.9483 12.7363 14.0527 12.7363H18.9365V8C18.9365 7.44785 19.3844 7.00022 19.9365 7H20.2314ZM15.3477 23.0625C14.7956 23.0625 14.348 23.5105 14.3477 24.0625V25.5049C14.3477 26.0572 14.7954 26.5049 15.3477 26.5049H20.2314C20.7837 26.5048 21.2314 26.0571 21.2314 25.5049V24.0625C21.2311 23.5105 20.7835 23.0625 20.2314 23.0625H15.3477ZM17.79 15.0312C15.8891 15.0312 14.3479 16.5728 14.3477 18.4736C14.3479 20.3745 15.8891 21.915 17.79 21.915C19.6907 21.9148 21.2312 20.3743 21.2314 18.4736C21.2312 16.5729 19.6907 15.0315 17.79 15.0312Z" fill="white"/>
</svg>
